<?xml version="1.0" encoding="iso-8859-1"?>
<!-- Uploaded to: SVG Repo, www.svgrepo.com, Generator: SVG Repo Mixer Tools -->
<!DOCTYPE svg PUBLIC "-//W3C//DTD SVG 1.1//EN" "http://www.w3.org/Graphics/SVG/1.1/DTD/svg11.dtd">
<svg fill="#000000" version="1.1" id="Capa_1" xmlns="http://www.w3.org/2000/svg" xmlns:xlink="http://www.w3.org/1999/xlink" 
	 width="800px" height="800px" viewBox="0 0 560.161 560.162"
	 xml:space="preserve">
<g>
	<g>
		<path d="M552.73,339.283c-18.752-10.97-31.818-29.29-35.852-50.267c-3.95-20.545,1.017-41.035,13.984-57.693
			c3.893-5,4.532-11.432,1.708-17.207c-2.727-5.575-8.171-9.321-13.547-9.321c-2.76,0-6.79,0.949-10.303,5.459
			c-18.706,24.03-26.5,53.85-21.833,82.751c-36.356-19.33-76.491-29.701-116.494-30.046h-0.456c-1.959,0-33.231,1.897-40.199,3.222
			l-0.021-0.144c-20.205,3.194-40.891,8.868-63.241,17.347c-3.85,1.46-7.751,2.98-11.698,4.517
			c-26.035,10.138-52.954,20.618-80.038,20.618c-7.09,0-13.969-0.749-20.453-2.225c-21.705-4.941-41.552-15.899-55.811-30.41
			c1.227,0.594,2.469,1.154,3.727,1.689c10.382,4.403,21.521,6.637,33.106,6.637c34.783,0,73.52-21.9,80.258-63.755
			c2.922-18.148-2.647-37.06-15.275-51.885c-11.668-13.696-27.629-21.551-43.789-21.551c-9.299,0-18.369,2.54-26.956,7.546
			c-17.745,10.349-35.401,36.772-22.396,59.474c6.57,11.466,18.375,18.589,30.805,18.589c8.7,0,16.601-3.461,22.846-10.009
			c4.327-4.535,5.474-10.594,3.069-16.209c-2.527-5.902-8.464-10.024-14.437-10.024c-3.853,0-7.439,1.625-10.37,4.697
			c-1.469,1.539-2.2,1.582-2.207,1.582c-0.116-0.058-0.802-0.707-1.343-2.671c-1.095-3.963-0.643-9.581,0.949-11.784
			c3.078-4.269,7.393-7.381,11.836-8.543c3.161-0.826,6.294-1.246,9.315-1.246c5.327,0,12.873,1.35,18.571,7.77
			c7.381,8.32,10.496,19.052,8.773,30.224c-1.845,11.974-9.238,22.886-19.771,29.186c-8.538,5.107-18.259,7.699-28.896,7.699
			c-13.96,0-29.131-4.461-43.877-12.901c-8.195-4.691-14.061-14.612-16.092-27.219c-2.736-16.974,1.426-43.005,21.31-65.169
			c14.676-16.355,37.323-26.12,60.585-26.12c10.505,0,20.536,1.961,29.817,5.833c31.292,13.051,50.964,44.762,48.951,78.911
			c-0.248,4.192,0.982,7.849,3.556,10.579c2.671,2.833,6.689,4.461,11.019,4.461c7.531,0,15.45-5.043,16.016-14.679
			c0.661-11.233-0.156-21.444-2.43-30.346c-6.359-24.899-20.6-46.264-41.188-61.785c-19.627-14.795-43.743-22.944-67.911-22.944
			c-22.959,0-45.034,7.277-63.838,21.041c-30.128,22.057-48.611,58.394-49.443,97.21c-0.82,38.256,15.184,73.379,43.914,96.362
			c17.889,14.314,37.959,24.003,59.141,28.685c-19.229-0.119-36.007-4.33-51.271-12.855c-32.268-18.029-52.864-43.604-61.215-76.025
			c-10.104-39.232-1-85.652,24.979-127.354c2.916-4.682,3.155-9.948,0.655-14.452c-2.772-4.994-8.553-8.348-14.388-8.348
			c-5.232,0-9.706,2.561-12.601,7.209C2.815,150.193-7.186,207.087,5.226,255.583c10.08,39.385,34.37,70.873,70.242,91.062
			c22.2,12.494,46.081,18.568,73.005,18.568c19.704,0,40.622-3.277,63.951-10.016c22.583-6.524,44.881-14.918,66.445-25.01
			c-16.907,26.929-21.206,59.138-11.34,88.248c15.438,45.548,57.451,76.147,104.551,76.147c10.674,0,21.39-1.561,31.852-4.633
			c8.647-2.54,11.573-10.257,10.634-16.777c-0.958-6.649-6.179-13.382-14.309-13.382c-1.487,0-3.021,0.229-4.56,0.683
			c-7.562,2.222-15.413,3.348-23.332,3.348c-36.929,0-68.428-23.804-76.599-57.883c-0.538-2.249-0.982-4.508-1.328-6.766
			c7.604,18.048,21.454,32.341,40.025,40.734c8.653,3.91,17.889,5.894,27.457,5.894c19.357,0,38.792-8.488,51.983-22.705
			c12.246-13.198,18.262-30.175,16.94-47.807c-2.151-28.699-27.684-45.848-51.127-45.848c-16.563,0-36.077,9.115-41.16,34.7
			c-0.939,4.728,0.156,9.296,3.082,12.858c3.108,3.788,8.111,6.138,13.057,6.138c6.925,0,12.084-4.329,13.47-11.3
			c1.824-9.184,9.037-12.445,14.658-12.442c6.407,0,12.157,3.81,15.006,9.938c6.224,13.397,0.912,30.637-11.839,38.434
			c-7.348,4.495-15.575,6.87-23.792,6.87c-15.746,0-29.822-8.559-37.65-22.895c-14.238-26.081-5.106-61.595,19.942-77.556
			c11.595-7.388,26.466-10.977,45.469-10.977c9.098,0,19.214,0.845,30.931,2.579c42.271,6.261,81.601,27.399,110.753,59.521
			c2.896,3.188,6.476,4.875,10.355,4.875c3.825,0,7.702-1.702,10.694-4.68c4.621-3.032,7.54-8.467,7.467-13.95
			C560.087,346.403,557.449,342.045,552.73,339.283z"/>
		<path d="M66.809,80.878c0,3.938,1.312,7.635,3.699,10.41c2.751,3.201,6.625,4.89,11.2,4.89c9.783,0,14.899-7.696,14.899-15.3
			c0-3.938-1.313-7.635-3.7-10.41c-2.751-3.201-6.625-4.89-11.2-4.89C71.928,65.578,66.809,73.274,66.809,80.878z"/>
	</g>
</g>
</svg>